<?xml version="1.0" encoding="utf-8"?>
<svg fill="#137bbb" width="64px" height="64px" viewBox="0 0 24 24" id="email-notification" data-name="Flat Color" xmlns="http://www.w3.org/2000/svg" class="icon flat-color"><path id="primary" d="M18.5,11A4.51,4.51,0,0,1,14,6.5,4.39,4.39,0,0,1,14.28,5H4A2,2,0,0,0,2,7V19a2,2,0,0,0,2,2H20a2,2,0,0,0,2-2V9.29A4.46,4.46,0,0,1,18.5,11Z" style="fill: #137bbb;"></path><path id="secondary" d="M16.66,10.6l-3.42,2.69a2,2,0,0,1-1.24.44,2,2,0,0,1-1.25-.44L2.08,6.45A2,2,0,0,1,4,5H14.28A4.39,4.39,0,0,0,14,6.5,4.52,4.52,0,0,0,16.66,10.6ZM18.5,3A3.5,3.5,0,1,0,22,6.5,3.5,3.5,0,0,0,18.5,3Z" style="fill: #9ac123;"></path></svg>